<?xml version="1.0" encoding="UTF-8"?><svg id="Layer_1" xmlns="http://www.w3.org/2000/svg" viewBox="0 0 535.82 103.73"><defs><style>.cls-1{fill:#1877f2;}</style></defs><path class="cls-1" d="M41.92,16.25c-6.31,0-8.13,2.8-8.13,8.97v10.24h16.83l-1.69,16.54h-15.13v50.19H13.6v-50.19H0v-16.54h13.6v-9.96C13.6,8.81,20.33,0,39.1,0c3.93,0,7.86.22,11.77.7v15.57l-8.94-.02Z"/><path class="cls-1" d="M52.02,66.71c0-18.64,8.83-32.69,27.34-32.69,10.09,0,16.26,5.19,19.21,11.64v-10.21h19.34v66.73h-19.34v-10.09c-2.8,6.45-9.11,11.5-19.21,11.5-18.51,0-27.34-14.02-27.34-32.69v-4.19ZM72.2,71.2c0,9.95,3.64,16.54,13.04,16.54,8.28,0,12.48-6.03,12.48-15.56v-6.7c0-9.53-4.2-15.56-12.48-15.56-9.39,0-13.04,6.59-13.04,16.54v4.74Z"/><path class="cls-1" d="M159.97,34.05c7.84,0,15.28,1.69,19.34,4.48l-4.48,14.3c-4.21-2-8.8-3.06-13.46-3.09-10.94,0-15.69,6.31-15.69,17.11v3.92c0,10.8,4.77,17.11,15.69,17.11,4.66-.03,9.25-1.08,13.46-3.09l4.48,14.3c-4.07,2.8-11.49,4.49-19.34,4.49-23.7,0-34.49-12.76-34.49-33.23v-3.09c0-20.47,10.79-33.23,34.49-33.23Z"/><path class="cls-1" d="M181.97,71.37v-5.88c0-18.93,10.79-31.38,32.81-31.38,20.75,0,29.86,12.62,29.86,31.12v10.66h-42.49c.42,9.11,4.49,13.18,15.69,13.18,7.58,0,15.57-1.54,21.46-4.07l3.69,13.83c-5.33,2.81-16.26,4.91-25.93,4.91-25.55,0-35.09-12.75-35.09-32.37ZM202.16,62.67h24.4v-1.68c0-7.29-2.94-13.07-11.77-13.07-9.12,0-12.63,5.76-12.63,14.73v.03Z"/><path class="cls-1" d="M319.48,70.92c0,18.64-8.97,32.69-27.46,32.69-10.09,0-17.1-5.05-19.91-11.5v10.09h-19.06V1.94l20.19-1.83v44.58c2.94-5.88,9.39-10.66,18.79-10.66,18.51,0,27.46,14.02,27.46,32.69v4.2ZM299.29,66.29c0-9.39-3.64-16.4-13.32-16.4-8.28,0-12.76,5.88-12.76,15.42v7.01c0,9.53,4.48,15.42,12.76,15.42,9.68,0,13.32-7.01,13.32-16.4v-5.05Z"/><path class="cls-1" d="M326.23,70.5v-3.36c0-19.21,10.94-33.09,33.23-33.09s33.24,13.88,33.24,33.09v3.36c0,19.21-10.94,33.09-33.23,33.09s-33.24-13.89-33.24-33.09ZM372.5,65.73c0-8.83-3.65-15.84-13.07-15.84s-13.04,7.01-13.04,15.84v6.17c0,8.83,3.65,15.84,13.04,15.84s13.07-7.01,13.07-15.84v-6.17Z"/><path class="cls-1" d="M399.41,70.5v-3.36c0-19.21,10.94-33.09,33.23-33.09s33.23,13.88,33.23,33.09v3.36c0,19.21-10.94,33.09-33.23,33.09s-33.23-13.89-33.23-33.09ZM445.68,65.73c0-8.83-3.65-15.84-13.04-15.84s-13.04,7.01-13.04,15.84v6.17c0,8.83,3.64,15.84,13.04,15.84s13.04-7.01,13.04-15.84v-6.17Z"/><path class="cls-1" d="M493.62,67.28l19.91-31.82h21.45l-20.89,32.95,21.73,33.78h-21.45l-20.75-32.69v32.69h-20.19V1.94l20.19-1.83v67.16Z"/></svg>