<?xml version="1.0" encoding="UTF-8"?><svg id="Layer_1" xmlns="http://www.w3.org/2000/svg" xmlns:xlink="http://www.w3.org/1999/xlink" viewBox="0 0 252 60"><defs><style>.cls-1{fill:url(#linear-gradient);}</style><linearGradient id="linear-gradient" x1="-412.93" y1="511.73" x2="-412.17" y2="512.59" gradientTransform="translate(21479.08 30764.58) scale(52 -60)" gradientUnits="userSpaceOnUse"><stop offset="0" stop-color="#ff7854"/><stop offset="1" stop-color="#fd5068"/></linearGradient></defs><path d="M93.76,46.52l.81-.91,2.43,7.58-.32.29c-1.83,1.67-4.57,2.52-8.16,2.52h-.13c-3.23,0-5.75-.86-7.5-2.55-1.78-1.73-2.68-4.26-2.68-7.52v-20.54h-6.21v-8.36h6.21V7h9.57v10.02h7.6v8.36h-7.64v18.57c0,.85.21,3.64,2.9,3.64,1.36,0,2.65-.54,3.11-1.07h0ZM99,55V17h9v38h-9ZM103.5,1c3.03,0,5.5,2.47,5.5,5.5s-2.47,5.5-5.5,5.5c-3.04,0-5.5-2.46-5.5-5.5,0-2.98,2.52-5.5,5.5-5.5ZM133.13,16c8.29,0,12.87,4.42,12.87,12.46v26.54h-9.59v-24.34h.03c-.2-4.32-2.33-6.25-6.85-6.25-4.04,0-7.33,2.38-8.99,4.5v26.09h-9.59V16.9h9.59v4.02c2.78-2.56,7.2-4.92,12.54-4.92h0ZM177.52,20.93V3h9.48v52.14h-9.48v-3.96c-3.02,3.08-7.03,4.81-11.25,4.81-10.33,0-17.27-8.02-17.27-19.95s6.94-19.99,17.27-19.99c4.25,0,8.26,1.75,11.25,4.87h0ZM178,29.47c-1.9-2.6-5.68-4.47-9.06-4.47-5.95,0-9.94,4.63-9.94,11.52s3.99,11.48,9.94,11.48c3.46,0,7.24-1.83,9.06-4.38v-14.15ZM209.8,16c11.3,0,19.2,8.53,19.2,20.74v2.57h-28.95c.96,5.37,5.26,8.79,11.17,8.79,3.74,0,7.84-1.55,10.19-3.86l.58-.57,4.54,6.42-.42.4c-3.77,3.55-9.35,5.51-15.72,5.51-12.01,0-20.4-8.23-20.4-20.02.05-11.39,8.56-19.98,19.8-19.98ZM200,32h19c-.52-5.49-5.22-8-9.52-8-6.5,0-8.95,4.74-9.48,8ZM251.3,16h.7v9.44l-.83-.16c-.81-.15-1.64-.22-2.46-.21-3.11,0-7.43,2.11-9.05,4.4v25.54h-9.65V16.86h9.7v4.27c3.2-3.24,7.42-5.13,11.6-5.13h0Z"/><path class="cls-1" d="M15.6,24.21c11.64-3.95,13.62-14.26,12.13-23.73,0-.34.3-.58.6-.44,11.14,5.32,23.67,16.99,23.67,34.57,0,13.48-10.6,25.39-26,25.39C9.56,60,0,48.43,0,34.61c0-8.06,5.79-16.36,12.03-19.87.3-.2.69,0,.69.34.15,1.81.64,6.4,2.67,9.08.05.05.15.05.2.05Z"/></svg>